<svg id="Calque_1" data-name="Calque 1" xmlns="http://www.w3.org/2000/svg" xmlns:xlink="http://www.w3.org/1999/xlink" viewBox="0 0 310.91 123.75"><defs><style>.cls-1{fill:none;}.cls-2{fill:#7b6c64;}.cls-3{clip-path:url(#clip-path);}.cls-4{fill:#61b459;}.cls-5{fill:#9f928b;}.cls-6{fill:#ce4b4b;}.cls-7{fill:#fff;}</style><clipPath id="clip-path" transform="translate(0 0)"><rect class="cls-1" width="310.91" height="123.75"/></clipPath></defs><title>logo</title><polygon class="cls-2" points="148.93 24.75 153.01 24.75 166.03 57.06 179.1 24.75 183.09 24.75 167.78 61.65 164.14 61.65 148.93 24.75"/><path class="cls-2" d="M187,24.75h3.49V31H187Zm0,9.62h3.49V61.65H187Z" transform="translate(0 0)"/><rect class="cls-2" x="197" y="24.75" width="3.49" height="36.9"/><g class="cls-3"><path class="cls-2" d="M220,33.68a14.31,14.31,0,1,1-14.21,14.51A14.47,14.47,0,0,1,220,33.68m0,25.48a11.18,11.18,0,0,0,0-22.34,11.18,11.18,0,0,0,0,22.34" transform="translate(0 0)"/><path class="cls-2" d="M266.62,57.36c0,2.94,0,6.63-2.49,10-3.44,4.79-9.73,5-10.82,5-3.89,0-11.47-1.49-14-10H243a10.57,10.57,0,0,0,10.22,6.88c4.59,0,9.87-2.64,9.87-10.17V56.66H263c-2,3.89-6.53,5.63-10.52,5.63a14.16,14.16,0,0,1-14.26-14.16,14.36,14.36,0,0,1,14.26-14.46A12.33,12.33,0,0,1,263,39.26h.1V34.37h3.49Zm-14.11,1.8c7.23,0,10.82-6.48,10.82-11.12a10.8,10.8,0,1,0-21.59,0,10.93,10.93,0,0,0,10.77,11.12" transform="translate(0 0)"/><path class="cls-2" d="M273.21,24.75h3.49V31h-3.49Zm0,9.62h3.49V61.65h-3.49Z" transform="translate(0 0)"/><path class="cls-2" d="M310.91,61.65h-3.49V56.86h-.1A12.62,12.62,0,0,1,296.7,62.3a14.32,14.32,0,1,1,0-28.62,12.34,12.34,0,0,1,10.62,5.49h.1V34.37h3.49ZM296.7,59.16a11.17,11.17,0,0,0,0-22.34,10.9,10.9,0,0,0-11.17,11.27A10.82,10.82,0,0,0,296.7,59.16" transform="translate(0 0)"/><path class="cls-4" d="M229.17,48a9.08,9.08,0,1,1-9.08-9.08A9.08,9.08,0,0,1,229.17,48" transform="translate(0 0)"/><path class="cls-5" d="M150.62,81h5.12c2.54,0,3.73.4,4.75,1.07a5.43,5.43,0,0,1,0,8.86c-1,.67-2.21,1.07-4.75,1.07h-3.28v7.41h-1.84Zm1.84,9.33h2.66c2,0,2.64,0,3.68-.47a3.7,3.7,0,0,0,0-6.71c-1-.47-1.72-.47-3.68-.47h-2.66Z" transform="translate(0 0)"/><path class="cls-5" d="M165.1,85.81h1.74v2h0c.82-1.91,2.36-2.21,3.83-2.31V87.3a4.19,4.19,0,0,0-2.93,1.34,4.45,4.45,0,0,0-.95,2.81v8H165.1Z" transform="translate(0 0)"/><path class="cls-5" d="M173.6,93.25a5.41,5.41,0,0,0,5.27,4.92A5.16,5.16,0,0,0,183.75,95h1.84a6.78,6.78,0,1,1,.42-2.21c0,.17,0,.32,0,.5Zm10.62-1.57a5.36,5.36,0,0,0-10.62,0Z" transform="translate(0 0)"/><path class="cls-5" d="M190.41,87.38a4.24,4.24,0,0,1,3.71-1.91,5.11,5.11,0,0,1,4.58,2.61,5.17,5.17,0,0,1,4.58-2.61c3.21,0,5.45,2.24,5.45,5.87v8.08H207V91.53c0-2.91-1.39-4.5-3.71-4.5s-3.71,1.59-3.71,4.5v7.88h-1.74V91.53c0-2.91-1.39-4.5-3.71-4.5s-3.71,1.59-3.71,4.5v7.88h-1.74V85.81h1.74Z" transform="translate(0 0)"/><path class="cls-5" d="M212,81h1.74v3.13H212Zm0,4.8h1.74V99.42H212Z" transform="translate(0 0)"/><path class="cls-5" d="M228.79,99.42h-1.64V97.3h0a4.61,4.61,0,0,1-4.35,2.44,5.7,5.7,0,0,1-4.68-2,7,7,0,0,1-1.19-4.38V85.81h1.74V93.3a5.56,5.56,0,0,0,1,3.58,4.08,4.08,0,0,0,3.16,1.29,3.88,3.88,0,0,0,2.89-1.09c.8-.8,1.42-1.69,1.42-4.08V85.81h1.74Z" transform="translate(0 0)"/><path class="cls-5" d="M233.84,87.38a4.24,4.24,0,0,1,3.71-1.91,5.11,5.11,0,0,1,4.58,2.61,5.17,5.17,0,0,1,4.58-2.61c3.21,0,5.45,2.24,5.45,5.87v8.08H250.4V91.53c0-2.91-1.39-4.5-3.71-4.5S243,88.62,243,91.53v7.88h-1.74V91.53c0-2.91-1.39-4.5-3.71-4.5s-3.71,1.59-3.71,4.5v7.88H232.1V85.81h1.74Z" transform="translate(0 0)"/><path class="cls-6" d="M76.39,0V10.9a33.64,33.64,0,0,1,0,65.24V99.6h55V0Z" transform="translate(0 0)"/><path class="cls-2" d="M34.58,43.52a33.5,33.5,0,0,1,3.2-14.33l-7.37-6.25L0,49.46V99.67H61.7V76.51a33.64,33.64,0,0,1-27.11-33" transform="translate(0 0)"/><rect class="cls-7" x="10.41" y="59.86" width="10.61" height="10.61"/><rect class="cls-7" x="112.07" y="26.28" width="10.61" height="10.61"/><rect class="cls-7" x="112.07" y="10.05" width="10.61" height="10.61"/><path class="cls-4" d="M96.79,43.52A28.59,28.59,0,1,1,68.21,14.92,28.59,28.59,0,0,1,96.79,43.52" transform="translate(0 0)"/><path class="cls-2" d="M126.45,118.1a4,4,0,0,1-4,3.59,3.9,3.9,0,1,1,0-7.8A3.93,3.93,0,0,1,126,116h-.87a3.13,3.13,0,0,0-2.68-1.46,3.22,3.22,0,1,0,0,6.43,3.19,3.19,0,0,0,3-2.23h-4.2v-.68Z" transform="translate(0 0)"/><path class="cls-2" d="M127.55,116h.71v.8h0a1.59,1.59,0,0,1,1.57-.95v.75a1.71,1.71,0,0,0-1.2.55,1.82,1.82,0,0,0-.39,1.15v3.26h-.71Z" transform="translate(0 0)"/><path class="cls-2" d="M133.24,115.85a2.92,2.92,0,1,1-2.9,3,3,3,0,0,1,2.9-3m0,5.2a2.28,2.28,0,0,0,0-4.56,2.28,2.28,0,0,0,0,4.56" transform="translate(0 0)"/><path class="cls-2" d="M142.08,121.56h-.67v-.87h0a1.89,1.89,0,0,1-1.78,1,2.34,2.34,0,0,1-1.91-.83,2.89,2.89,0,0,1-.49-1.79V116h.71v3.06a2.28,2.28,0,0,0,.4,1.47,1.67,1.67,0,0,0,1.29.53,1.58,1.58,0,0,0,1.18-.45,2,2,0,0,0,.58-1.67V116h.71Z" transform="translate(0 0)"/><path class="cls-2" d="M143.41,116h.71v1h0a2.6,2.6,0,0,1,2.17-1.12,2.92,2.92,0,1,1,0,5.84,2.61,2.61,0,0,1-2.17-1.11h0v2.93h-.71Zm2.9.5a2.28,2.28,0,0,0,0,4.56,2.28,2.28,0,1,0,0-4.56" transform="translate(0 0)"/><path class="cls-2" d="M150.82,119a2.21,2.21,0,0,0,2.16,2,2.11,2.11,0,0,0,2-1.31h.75a2.9,2.9,0,0,1-5.64-1,2.94,2.94,0,0,1,2.89-2.93,2.9,2.9,0,0,1,2.48,1.43,2.94,2.94,0,0,1,.44,1.56c0,.07,0,.13,0,.2Zm4.35-.64a2.19,2.19,0,0,0-4.35,0Z" transform="translate(0 0)"/><polygon class="cls-2" points="159.21 114.03 160.05 114.03 162.71 120.62 165.37 114.03 166.19 114.03 163.06 121.56 162.32 121.56 159.21 114.03"/><path class="cls-2" d="M167,114h.71v1.28H167Zm0,2h.71v5.57H167Z" transform="translate(0 0)"/><rect class="cls-2" x="169.02" y="114.03" width="0.71" height="7.53"/><path class="cls-2" d="M173.72,115.85a2.92,2.92,0,1,1-2.9,3,3,3,0,0,1,2.9-3m0,5.2a2.28,2.28,0,0,0,0-4.56,2.28,2.28,0,0,0,0,4.56" transform="translate(0 0)"/><path class="cls-2" d="M183.23,120.68a3.18,3.18,0,0,1-.51,2,3,3,0,0,1-5.06-1h.75a2.16,2.16,0,0,0,2.09,1.4,1.91,1.91,0,0,0,2-2.08v-.49h0a2.39,2.39,0,0,1-2.15,1.15,2.89,2.89,0,0,1-2.91-2.89,2.93,2.93,0,0,1,2.91-3,2.51,2.51,0,0,1,2.15,1.14h0v-1h.71Zm-2.88.37a2.28,2.28,0,1,0-2.2-2.27,2.23,2.23,0,0,0,2.2,2.27" transform="translate(0 0)"/><path class="cls-2" d="M184.57,114h.71v1.28h-.71Zm0,2h.71v5.57h-.71Z" transform="translate(0 0)"/><path class="cls-2" d="M192.26,121.56h-.71v-1h0a2.57,2.57,0,0,1-2.17,1.11,2.92,2.92,0,1,1,0-5.84,2.52,2.52,0,0,1,2.17,1.12h0v-1h.71Zm-2.9-.51a2.28,2.28,0,1,0-2.28-2.26,2.21,2.21,0,0,0,2.28,2.26" transform="translate(0 0)"/><rect class="cls-2" y="117.94" width="113.8" height="0.96"/><rect class="cls-2" x="197.11" y="117.94" width="113.8" height="0.96"/></g></svg>