<svg xmlns="http://www.w3.org/2000/svg" viewBox="0 0 246.1 97.95"><defs><style>.cls-1{fill:#9f938c;}</style></defs><title>logo-marron</title><g id="Calque_2" data-name="Calque 2"><g id="Calque_1-2" data-name="Calque 1"><polygon class="cls-1" points="117.88 19.59 121.12 19.59 131.42 45.17 141.77 19.59 144.92 19.59 132.81 48.8 129.92 48.8 117.88 19.59"/><path class="cls-1" d="M148,27.21h2.77V48.8H148Zm0-7.62h2.77v5H148Z"/><rect class="cls-1" x="155.94" y="19.59" width="2.76" height="29.21"/><path class="cls-1" d="M174.22,46.83a8.85,8.85,0,0,0,0-17.69,8.85,8.85,0,0,0,0,17.69m0-20.17a11.33,11.33,0,1,1-11.25,11.48,11.45,11.45,0,0,1,11.25-11.48"/><path class="cls-1" d="M199.88,46.83c5.72,0,8.56-5.13,8.56-8.81a8.55,8.55,0,1,0-17.09,0,8.66,8.66,0,0,0,8.53,8.81m11.17-1.42c0,2.32,0,5.24-2,7.89-2.73,3.79-7.7,4-8.57,4-3.08,0-9.08-1.19-11-7.94h2.92a8.36,8.36,0,0,0,8.09,5.45c3.63,0,7.82-2.09,7.82-8v-1.9h-.08c-1.62,3.08-5.18,4.46-8.33,4.46A11.21,11.21,0,0,1,188.59,38.1a11.36,11.36,0,0,1,11.29-11.44,9.76,9.76,0,0,1,8.33,4.42h.08V27.21h2.76Z"/><path class="cls-1" d="M181.4,38a7.19,7.19,0,1,1-7.19-7.19A7.19,7.19,0,0,1,181.4,38"/><path class="cls-1" d="M120.68,71.51h2.11a6,6,0,0,0,2.91-.38,2.92,2.92,0,0,0,0-5.31,6,6,0,0,0-2.91-.38h-2.11Zm-1.45-7.39h4A6.23,6.23,0,0,1,127,65a4.3,4.3,0,0,1,0,7,6.23,6.23,0,0,1-3.76.85h-2.6V78.7h-1.45Z"/><path class="cls-1" d="M130.68,67.92h1.38v1.56h0a3.06,3.06,0,0,1,3-1.83v1.46a3.27,3.27,0,0,0-2.32,1.06,3.54,3.54,0,0,0-.75,2.22v6.3h-1.38Z"/><path class="cls-1" d="M145.82,72.57a4.24,4.24,0,0,0-8.41,0Zm-8.41,1.24a4.28,4.28,0,0,0,4.18,3.9,4.08,4.08,0,0,0,3.86-2.54h1.46a5.7,5.7,0,1,1-.52-4.77,5.7,5.7,0,0,1,.85,3c0,.14,0,.25,0,.39Z"/><path class="cls-1" d="M150.72,69.17a3.36,3.36,0,0,1,2.93-1.52,4.05,4.05,0,0,1,3.63,2.07,4.1,4.1,0,0,1,3.62-2.07c2.54,0,4.31,1.77,4.31,4.65v6.39h-1.38V72.45c0-2.3-1.1-3.56-2.93-3.56S158,70.15,158,72.45v6.24h-1.38V72.45c0-2.3-1.1-3.56-2.94-3.56s-2.93,1.26-2.93,3.56v6.24h-1.38V67.92h1.38Z"/><path class="cls-1" d="M167.79,67.93h1.38V78.7h-1.38Zm0-3.81h1.38v2.49h-1.38Z"/><path class="cls-1" d="M181.1,78.69h-1.3V77h0A3.65,3.65,0,0,1,176.31,79a4.54,4.54,0,0,1-3.7-1.61,5.65,5.65,0,0,1-.94-3.47v-6h1.38v5.93a4.43,4.43,0,0,0,.76,2.84,3.26,3.26,0,0,0,2.5,1,3.09,3.09,0,0,0,2.29-.87,3.88,3.88,0,0,0,1.12-3.23V67.92h1.38Z"/><path class="cls-1" d="M185.09,69.17A3.37,3.37,0,0,1,188,67.65a4,4,0,0,1,3.62,2.07,4.1,4.1,0,0,1,3.62-2.07c2.54,0,4.32,1.77,4.32,4.65v6.39h-1.38V72.45c0-2.3-1.11-3.56-2.94-3.56s-2.93,1.26-2.93,3.56v6.24H191V72.45c0-2.3-1.1-3.56-2.93-3.56s-2.94,1.26-2.94,3.56v6.24h-1.37V67.92h1.37Z"/><path class="cls-1" d="M27.37,34.45A26.59,26.59,0,0,1,29.91,23.1l-5.84-5L0,39.15V78.9H48.84V60.56A26.62,26.62,0,0,1,27.37,34.45ZM16.64,55.78H8.24v-8.4h8.4Z"/><path class="cls-1" d="M60.47,0V8.63a26.62,26.62,0,0,1,0,51.64V78.84H104V0ZM97.11,29.2h-8.4V20.8h8.4Zm0-12.85h-8.4V8h8.4Z"/><path class="cls-1" d="M76.62,34.45A22.63,22.63,0,1,1,54,11.81,22.63,22.63,0,0,1,76.62,34.45"/><path class="cls-1" d="M100.09,93.48a3.14,3.14,0,0,1-3.15,2.85,3.18,3.18,0,0,1-3.2-3.09,3.15,3.15,0,0,1,3.19-3.09,3.1,3.1,0,0,1,2.82,1.7h-.69a2.49,2.49,0,0,0-2.12-1.16,2.55,2.55,0,1,0,0,5.09A2.52,2.52,0,0,0,99.37,94H96.05v-.54Z"/><path class="cls-1" d="M101,91.81h.57v.64h0a1.27,1.27,0,0,1,1.25-.75v.6a1.31,1.31,0,0,0-1,.43,1.41,1.41,0,0,0-.31.91v2.58H101Z"/><path class="cls-1" d="M105.48,95.82A1.81,1.81,0,1,0,103.74,94a1.77,1.77,0,0,0,1.74,1.78m0-4.12a2.31,2.31,0,1,1-2.3,2.35,2.34,2.34,0,0,1,2.3-2.35"/><path class="cls-1" d="M112.47,96.22h-.53v-.69h0a1.48,1.48,0,0,1-1.41.79,1.88,1.88,0,0,1-1.52-.66,2.28,2.28,0,0,1-.38-1.41V91.81h.56v2.43a1.77,1.77,0,0,0,.32,1.16,1.29,1.29,0,0,0,1,.42,1.23,1.23,0,0,0,.93-.36,1.59,1.59,0,0,0,.46-1.32V91.81h.57Z"/><path class="cls-1" d="M115.82,92.21a1.81,1.81,0,0,0,0,3.61,1.81,1.81,0,0,0,0-3.61m-2.3-.4h.56v.78h0a2.05,2.05,0,0,1,1.72-.89,2.32,2.32,0,1,1,0,4.63,2.09,2.09,0,0,1-1.72-.88h0v2.32h-.56Z"/><path class="cls-1" d="M122.82,93.71a1.74,1.74,0,0,0-3.44,0Zm-3.44.51a1.76,1.76,0,0,0,1.71,1.6,1.67,1.67,0,0,0,1.58-1h.6a2.33,2.33,0,1,1-.21-2,2.37,2.37,0,0,1,.34,1.23c0,.06,0,.11,0,.16Z"/><polygon class="cls-1" points="126.03 90.26 126.69 90.26 128.79 95.48 130.9 90.26 131.54 90.26 129.07 96.22 128.48 96.22 126.03 90.26"/><path class="cls-1" d="M132.18,96.22h.56V91.81h-.56Zm0-4.94h.56v-1h-.56Z"/><rect class="cls-1" x="133.79" y="90.26" width="0.56" height="5.96"/><path class="cls-1" d="M137.52,95.82A1.81,1.81,0,1,0,135.78,94a1.77,1.77,0,0,0,1.74,1.78m0-4.12a2.31,2.31,0,0,1,0,4.62,2.31,2.31,0,0,1,0-4.62"/><path class="cls-1" d="M142.75,95.82a1.81,1.81,0,0,0,0-3.61,1.81,1.81,0,0,0,0,3.61m2.28-.29a2.53,2.53,0,0,1-.4,1.61,2.34,2.34,0,0,1-4-.81h.59a1.71,1.71,0,0,0,1.66,1.11,1.51,1.51,0,0,0,1.59-1.64v-.39h0a1.89,1.89,0,0,1-1.7.91,2.28,2.28,0,0,1-2.3-2.28,2.32,2.32,0,0,1,2.3-2.34,2,2,0,0,1,1.7.9h0v-.79H145Z"/><path class="cls-1" d="M146.1,96.22h.56V91.81h-.56Zm0-4.94h.56v-1h-.56Z"/><path class="cls-1" d="M149.89,95.82a1.81,1.81,0,0,0,0-3.61,1.81,1.81,0,0,0,0,3.61m2.3.4h-.57v-.77h0a2.05,2.05,0,0,1-1.72.87,2.31,2.31,0,1,1,0-4.62,2,2,0,0,1,1.72.89h0v-.78h.57Z"/><rect class="cls-1" y="93.36" width="90.08" height="0.76"/><rect class="cls-1" x="156.03" y="93.36" width="90.08" height="0.76"/><path class="cls-1" d="M234.85,46.83A8.85,8.85,0,1,0,226,38.06a8.58,8.58,0,0,0,8.84,8.77m11.25,2h-2.76V45h-.08a10,10,0,0,1-8.41,4.3,11.33,11.33,0,1,1,0-22.65A9.75,9.75,0,0,1,243.26,31h.08V27.21h2.76Z"/><path class="cls-1" d="M216.26,27.21H219V48.8h-2.76Zm0-7.62H219v5h-2.76Z"/></g></g></svg>